<svg width="712" height="876" viewBox="0 0 712 876" fill="none" xmlns="http://www.w3.org/2000/svg">
<rect width="712" height="876" fill="#FAEEE7"/>
<path d="M176.1 188.315C172.444 185.028 164.825 179.006 157.779 178.684C157.292 178.662 156.781 178.991 156.419 179.516L131.469 215.676C130.677 216.824 130.969 218.378 132.006 218.544C138.74 219.623 145.677 225.244 148.963 228.232C150.085 229.252 151.838 228.768 152.951 227.155L176.117 193.582C177.332 191.822 177.329 189.42 176.1 188.315ZM154.855 175.631C153.454 167.129 147.387 158.858 144.158 154.952C143.072 153.64 141.145 154.027 139.931 155.787L116.765 189.361C115.651 190.975 115.548 193.182 116.548 194.378C119.479 197.884 125.116 205.397 127.073 213.399C127.373 214.627 128.664 214.729 129.454 213.584L154.421 177.399C154.784 176.873 154.952 176.219 154.855 175.631Z" fill="#FFDECB" fill-opacity="0.7"/>
<path d="M647.907 52.8129C644.251 49.5261 636.632 43.5041 629.586 43.1823C629.099 43.16 628.588 43.4893 628.226 44.014L603.276 80.1741C602.484 81.3219 602.777 82.8761 603.813 83.0423C610.547 84.1214 617.484 89.7423 620.77 92.73C621.892 93.7499 623.645 93.2659 624.758 91.653L647.924 58.0797C649.139 56.3204 649.136 53.9182 647.907 52.8129ZM626.663 40.1291C625.261 31.6273 619.194 23.3563 615.965 19.4505C614.879 18.1384 612.952 18.5248 611.738 20.2848L588.572 53.8591C587.458 55.473 587.355 57.6801 588.355 58.8758C591.286 62.3816 596.923 69.8949 598.88 77.8966C599.18 79.1251 600.471 79.2268 601.261 78.082L626.229 41.897C626.591 41.3713 626.759 40.7175 626.663 40.1291Z" fill="#FFDECB" fill-opacity="0.7"/>
<path d="M483.91 349.777C480.254 346.49 472.635 340.468 465.589 340.146C465.102 340.124 464.591 340.453 464.229 340.978L439.279 377.138C438.487 378.286 438.78 379.84 439.816 380.006C446.55 381.085 453.487 386.706 456.773 389.694C457.895 390.714 459.648 390.23 460.761 388.617L483.927 355.044C485.142 353.284 485.139 350.882 483.91 349.777ZM462.665 337.093C461.264 328.591 455.197 320.32 451.968 316.414C450.882 315.102 448.955 315.489 447.741 317.249L424.575 350.823C423.461 352.437 423.358 354.644 424.358 355.84C427.289 359.345 432.926 366.859 434.883 374.86C435.183 376.089 436.474 376.191 437.264 375.046L462.231 338.861C462.594 338.335 462.762 337.681 462.665 337.093Z" fill="#FFDECB" fill-opacity="0.7"/>
<path d="M126.961 718.865C123.305 715.578 115.686 709.556 108.639 709.234C108.153 709.212 107.642 709.541 107.28 710.066L82.3294 746.226C81.5374 747.374 81.8303 748.928 82.8669 749.094C89.6007 750.173 96.5376 755.794 99.8238 758.782C100.946 759.802 102.699 759.318 103.812 757.705L126.977 724.131C128.192 722.372 128.19 719.97 126.961 718.865ZM105.716 706.181C104.315 697.679 98.2477 689.408 95.0189 685.502C93.933 684.19 92.006 684.577 90.7916 686.337L67.6255 719.911C66.5119 721.525 66.4084 723.732 67.4091 724.928C70.34 728.433 75.9766 735.947 77.9338 743.948C78.2341 745.177 79.5249 745.279 80.3149 744.134L105.282 707.949C105.645 707.423 105.813 706.769 105.716 706.181Z" fill="#FFDECB" fill-opacity="0.7"/>
<path d="M618.715 715.653C615.059 712.366 607.44 706.344 600.394 706.022C599.908 706 599.396 706.329 599.034 706.854L574.084 743.014C573.292 744.162 573.585 745.716 574.621 745.882C581.355 746.961 588.292 752.582 591.578 755.57C592.7 756.59 594.454 756.106 595.566 754.493L618.732 720.92C619.947 719.16 619.944 716.758 618.715 715.653ZM597.471 702.969C596.069 694.467 590.002 686.196 586.773 682.29C585.687 680.978 583.76 681.365 582.546 683.125L559.38 716.699C558.266 718.313 558.163 720.52 559.164 721.716C562.094 725.221 567.731 732.735 569.688 740.736C569.989 741.965 571.279 742.067 572.069 740.922L597.037 704.737C597.399 704.211 597.567 703.557 597.471 702.969Z" fill="#FFDECB" fill-opacity="0.7"/>
<path d="M123.771 442.963H112.497V449.351C112.497 453.88 110.102 457.564 107.157 457.564C104.213 457.564 101.817 453.88 101.817 449.351V435.48L97.0039 439.929C95.5725 441.24 94.6974 443.624 94.6974 446.18V451.575L88.764 456.845C87.6293 457.849 87.2362 460.085 87.8963 461.83L93.8296 477.641C94.4823 479.386 95.9359 479.979 97.0707 478.975L104.74 472.165H114.871C117.489 472.165 119.617 468.891 119.617 464.865H120.804C122.117 464.865 123.177 463.233 123.177 461.214V453.914H123.771C124.757 453.914 125.551 452.693 125.551 451.176V445.701C125.551 444.183 124.757 442.963 123.771 442.963ZM134.725 438.697L128.792 422.886C128.139 421.141 126.685 420.548 125.551 421.552L117.882 428.362H110.302C109.412 428.362 108.544 428.749 107.788 429.468L105.303 431.852C104.606 432.514 104.191 433.689 104.191 434.944V449.351C104.191 451.872 105.518 453.914 107.157 453.914C108.796 453.914 110.124 451.872 110.124 449.351V439.313H123.771C126.062 439.313 127.924 442.176 127.924 445.701V448.952L133.857 443.682C134.992 442.666 135.378 440.442 134.725 438.697V438.697Z" fill="#FFDECB" fill-opacity="0.7"/>
<path d="M401.926 612.323H390.653V618.711C390.653 623.24 388.257 626.924 385.313 626.924C382.368 626.924 379.973 623.24 379.973 618.711V604.84L375.159 609.289C373.728 610.601 372.853 612.985 372.853 615.54V620.936L366.919 626.206C365.785 627.21 365.391 629.445 366.052 631.191L371.985 647.001C372.638 648.746 374.091 649.34 375.226 648.336L382.895 641.526H393.026C395.644 641.526 397.773 638.252 397.773 634.225H398.959C400.272 634.225 401.333 632.594 401.333 630.575V623.274H401.926C402.912 623.274 403.706 622.054 403.706 620.536V615.061C403.706 613.544 402.912 612.323 401.926 612.323ZM412.88 608.057L406.947 592.247C406.294 590.501 404.841 589.908 403.706 590.912L396.037 597.722H388.457C387.567 597.722 386.7 598.11 385.943 598.828L383.458 601.213C382.761 601.874 382.346 603.049 382.346 604.304V618.711C382.346 621.232 383.674 623.274 385.313 623.274C386.952 623.274 388.279 621.232 388.279 618.711V608.673H401.926C404.218 608.673 406.079 611.536 406.079 615.061V618.312L412.013 613.042C413.147 612.027 413.533 609.802 412.88 608.057V608.057Z" fill="#FFDECB" fill-opacity="0.7"/>
<path d="M224.4 39.1279H213.127V45.5159C213.127 50.0446 210.731 53.7291 207.787 53.7291C204.842 53.7291 202.447 50.0446 202.447 45.5159V31.6448L197.633 36.0936C196.202 37.4054 195.327 39.7895 195.327 42.3447V47.7403L189.393 53.0105C188.259 54.0143 187.866 56.2501 188.526 57.9954L194.459 73.8058C195.112 75.5511 196.565 76.1443 197.7 75.1405L205.369 68.3304H215.5C218.118 68.3304 220.247 65.0565 220.247 61.0297H221.433C222.746 61.0297 223.807 59.3985 223.807 57.3794V50.0788H224.4C225.386 50.0788 226.18 48.8583 226.18 47.3411V41.8656C226.18 40.3485 225.386 39.1279 224.4 39.1279ZM235.354 34.8616L229.421 19.0512C228.768 17.3059 227.315 16.7127 226.18 17.7166L218.511 24.5267H210.931C210.041 24.5267 209.174 24.9145 208.417 25.6332L205.933 28.0173C205.235 28.6789 204.82 29.8538 204.82 31.1086V45.5159C204.82 48.0369 206.148 50.0788 207.787 50.0788C209.426 50.0788 210.753 48.0369 210.753 45.5159V35.4776H224.4C226.692 35.4776 228.553 38.3408 228.553 41.8656V45.1167L234.487 39.8466C235.621 38.8313 236.007 36.6069 235.354 34.8616V34.8616Z" fill="#FFDECB" fill-opacity="0.7"/>
</svg>
