<svg width="3000" height="3000" viewBox="0 0 3000 3000" fill="none" xmlns="http://www.w3.org/2000/svg">
<rect width="3000" height="3000" fill="#FAEEE7"/>
<path d="M741.997 644.913C726.592 633.657 694.49 613.033 664.799 611.931C662.75 611.855 660.595 612.983 659.07 614.78L553.942 738.615C550.605 742.546 551.839 747.869 556.207 748.438C584.58 752.134 613.808 771.383 627.654 781.615C632.382 785.108 639.77 783.45 644.459 777.927L742.066 662.95C747.186 656.925 747.173 648.698 741.997 644.913ZM652.482 601.475C646.578 572.359 621.014 544.034 607.409 530.658C602.834 526.165 594.714 527.488 589.598 533.515L491.988 648.495C487.296 654.022 486.859 661.581 491.076 665.676C503.425 677.682 527.175 703.413 535.421 730.816C536.687 735.023 542.126 735.371 545.454 731.451L650.654 607.53C652.182 605.729 652.89 603.49 652.482 601.475Z" fill="#FFDECB" fill-opacity="0.5"/>
<path d="M2729.95 180.864C2714.54 169.608 2682.44 148.985 2652.75 147.883C2650.7 147.807 2648.55 148.934 2647.02 150.731L2541.89 274.567C2538.56 278.498 2539.79 283.821 2544.16 284.39C2572.53 288.085 2601.76 307.335 2615.61 317.567C2620.33 321.059 2627.72 319.402 2632.41 313.878L2730.02 198.901C2735.14 192.876 2735.12 184.65 2729.95 180.864ZM2640.43 137.427C2634.53 108.311 2608.97 79.9857 2595.36 66.6094C2590.79 62.1162 2582.67 63.4394 2577.55 69.4666L2479.94 184.447C2475.25 189.974 2474.81 197.533 2479.03 201.628C2491.38 213.634 2515.13 239.364 2523.37 266.767C2524.64 270.975 2530.08 271.323 2533.41 267.402L2638.61 143.481C2640.13 141.681 2640.84 139.442 2640.43 137.427Z" fill="#FFDECB" fill-opacity="0.5"/>
<path d="M2038.95 1197.86C2023.54 1186.61 1991.44 1165.98 1961.75 1164.88C1959.7 1164.81 1957.55 1165.93 1956.02 1167.73L1850.89 1291.57C1847.56 1295.5 1848.79 1300.82 1853.16 1301.39C1881.53 1305.09 1910.76 1324.33 1924.61 1334.57C1929.33 1338.06 1936.72 1336.4 1941.41 1330.88L2039.02 1215.9C2044.14 1209.88 2044.12 1201.65 2038.95 1197.86ZM1949.43 1154.43C1943.53 1125.31 1917.97 1096.99 1904.36 1083.61C1899.79 1079.12 1891.67 1080.44 1886.55 1086.47L1788.94 1201.45C1784.25 1206.97 1783.81 1214.53 1788.03 1218.63C1800.38 1230.63 1824.13 1256.36 1832.37 1283.77C1833.64 1287.97 1839.08 1288.32 1842.41 1284.4L1947.61 1160.48C1949.13 1158.68 1949.84 1156.44 1949.43 1154.43Z" fill="#FFDECB" fill-opacity="0.5"/>
<path d="M534.948 2461.86C519.544 2450.61 487.441 2429.98 457.751 2428.88C455.702 2428.81 453.547 2429.93 452.021 2431.73L346.894 2555.57C343.557 2559.5 344.791 2564.82 349.159 2565.39C377.531 2569.09 406.76 2588.33 420.606 2598.57C425.334 2602.06 432.722 2600.4 437.411 2594.88L535.018 2479.9C540.137 2473.88 540.125 2465.65 534.948 2461.86ZM445.434 2418.43C439.529 2389.31 413.965 2360.99 400.361 2347.61C395.785 2343.12 387.666 2344.44 382.549 2350.47L284.939 2465.45C280.247 2470.97 279.811 2478.53 284.028 2482.63C296.377 2494.63 320.126 2520.36 328.373 2547.77C329.639 2551.97 335.077 2552.32 338.406 2548.4L443.605 2424.48C445.134 2422.68 445.841 2420.44 445.434 2418.43Z" fill="#FFDECB" fill-opacity="0.5"/>
<path d="M2606.95 2450.86C2591.54 2439.61 2559.44 2418.98 2529.75 2417.88C2527.7 2417.81 2525.55 2418.93 2524.02 2420.73L2418.89 2544.57C2415.56 2548.5 2416.79 2553.82 2421.16 2554.39C2449.53 2558.09 2478.76 2577.33 2492.61 2587.57C2497.33 2591.06 2504.72 2589.4 2509.41 2583.88L2607.02 2468.9C2612.14 2462.88 2612.12 2454.65 2606.95 2450.86ZM2517.43 2407.43C2511.53 2378.31 2485.97 2349.99 2472.36 2336.61C2467.79 2332.12 2459.67 2333.44 2454.55 2339.47L2356.94 2454.45C2352.25 2459.97 2351.81 2467.53 2356.03 2471.63C2368.38 2483.63 2392.13 2509.36 2400.37 2536.77C2401.64 2540.97 2407.08 2541.32 2410.41 2537.4L2515.61 2413.48C2517.13 2411.68 2517.84 2409.44 2517.43 2407.43Z" fill="#FFDECB" fill-opacity="0.5"/>
<path d="M521.507 1517H474.007V1538.87C474.007 1554.38 463.913 1567 451.507 1567C439.101 1567 429.007 1554.38 429.007 1538.87V1491.37L408.726 1506.61C402.695 1511.1 399.007 1519.26 399.007 1528.01V1546.49L374.007 1564.54C369.226 1567.98 367.57 1575.64 370.351 1581.61L395.351 1635.76C398.101 1641.73 404.226 1643.77 409.007 1640.33L441.319 1617.01H484.007C495.038 1617.01 504.007 1605.79 504.007 1592H509.007C514.538 1592 519.007 1586.42 519.007 1579.5V1554.5H521.507C525.663 1554.5 529.007 1550.32 529.007 1545.13V1526.37C529.007 1521.18 525.663 1517 521.507 1517ZM567.663 1502.39L542.663 1448.24C539.913 1442.27 533.788 1440.23 529.007 1443.67L496.694 1466.99H464.757C461.007 1466.99 457.351 1468.32 454.163 1470.78L443.694 1478.95C440.757 1481.21 439.007 1485.24 439.007 1489.53V1538.87C439.007 1547.51 444.601 1554.5 451.507 1554.5C458.413 1554.5 464.007 1547.51 464.007 1538.87V1504.5H521.507C531.163 1504.5 539.007 1514.3 539.007 1526.37V1537.51L564.007 1519.46C568.788 1515.98 570.413 1508.36 567.663 1502.39V1502.39Z" fill="#FFDECB" fill-opacity="0.5"/>
<path d="M1693.51 2097H1646.01V2118.87C1646.01 2134.38 1635.91 2147 1623.51 2147C1611.1 2147 1601.01 2134.38 1601.01 2118.87V2071.37L1580.73 2086.61C1574.69 2091.1 1571.01 2099.26 1571.01 2108.01V2126.49L1546.01 2144.54C1541.23 2147.98 1539.57 2155.64 1542.35 2161.61L1567.35 2215.76C1570.1 2221.73 1576.23 2223.77 1581.01 2220.33L1613.32 2197.01H1656.01C1667.04 2197.01 1676.01 2185.79 1676.01 2172H1681.01C1686.54 2172 1691.01 2166.42 1691.01 2159.5V2134.5H1693.51C1697.66 2134.5 1701.01 2130.32 1701.01 2125.13V2106.37C1701.01 2101.18 1697.66 2097 1693.51 2097ZM1739.66 2082.39L1714.66 2028.24C1711.91 2022.27 1705.79 2020.23 1701.01 2023.67L1668.69 2046.99H1636.76C1633.01 2046.99 1629.35 2048.32 1626.16 2050.78L1615.69 2058.95C1612.76 2061.21 1611.01 2065.24 1611.01 2069.53V2118.87C1611.01 2127.51 1616.6 2134.5 1623.51 2134.5C1630.41 2134.5 1636.01 2127.51 1636.01 2118.87V2084.5H1693.51C1703.16 2084.5 1711.01 2094.3 1711.01 2106.37V2117.51L1736.01 2099.46C1740.79 2095.98 1742.41 2088.36 1739.66 2082.39V2082.39Z" fill="#FFDECB" fill-opacity="0.5"/>
<path d="M945.507 153.998H898.007V175.875C898.007 191.384 887.913 204.002 875.507 204.002C863.101 204.002 853.007 191.384 853.007 175.875V128.371L832.726 143.606C826.695 148.099 823.007 156.264 823.007 165.014V183.493L798.007 201.541C793.226 204.979 791.57 212.636 794.351 218.613L819.351 272.758C822.101 278.735 828.226 280.766 833.007 277.329L865.319 254.006H908.007C919.038 254.006 928.007 242.794 928.007 229.004H933.007C938.538 229.004 943.007 223.418 943.007 216.503V191.501H945.507C949.663 191.501 953.007 187.321 953.007 182.125V163.374C953.007 158.178 949.663 153.998 945.507 153.998ZM991.663 139.387L966.663 85.2421C963.913 79.265 957.788 77.2336 953.007 80.6714L920.694 103.994H888.757C885.007 103.994 881.351 105.322 878.163 107.783L867.694 115.948C864.757 118.214 863.007 122.237 863.007 126.535V175.875C863.007 184.508 868.601 191.501 875.507 191.501C882.413 191.501 888.007 184.508 888.007 175.875V141.497H945.507C955.163 141.497 963.007 151.302 963.007 163.374V174.507L988.007 156.459C992.788 152.982 994.413 145.364 991.663 139.387V139.387Z" fill="#FFDECB" fill-opacity="0.5"/>
</svg>
